<svg width="24" height="24" viewBox="0 0 24 24" fill="none" xmlns="http://www.w3.org/2000/svg">
<g id="arrow">
<path id="Vector" d="M5.24205 8.74278C5.41352 8.91426 5.61655 9 5.85114 9C6.08572 9 6.28852 8.91426 6.45954 8.74278L11.4838 3.71848L16.5253 8.75993C16.6853 8.91998 16.8854 9 17.1255 9C17.3655 9 17.5713 8.91426 17.7428 8.74278C17.9143 8.57131 18 8.36828 18 8.13369C18 7.89911 17.9143 7.69631 17.7428 7.52529L11.964 1.76363C11.8954 1.69504 11.8211 1.64634 11.7411 1.61753C11.661 1.58873 11.5753 1.57455 11.4838 1.57501C11.3924 1.57501 11.3066 1.58941 11.2266 1.61822C11.1466 1.64703 11.0723 1.6955 11.0037 1.76363L5.2249 7.54244C5.06485 7.70248 4.98483 7.8998 4.98483 8.13438C4.98483 8.36896 5.07057 8.57176 5.24205 8.74278Z" fill="#1A274E"/>
<path id="Vector_2" d="M5.24205 14.2572C5.41352 14.0857 5.61655 14 5.85114 14C6.08572 14 6.28852 14.0857 6.45954 14.2572L11.4838 19.2815L16.5253 14.2401C16.6853 14.08 16.8854 14 17.1255 14C17.3655 14 17.5713 14.0857 17.7428 14.2572C17.9143 14.4287 18 14.6317 18 14.8663C18 15.1009 17.9143 15.3037 17.7428 15.4747L11.964 21.2364C11.8954 21.305 11.8211 21.3537 11.7411 21.3825C11.661 21.4113 11.5753 21.4255 11.4838 21.425C11.3924 21.425 11.3066 21.4106 11.2266 21.3818C11.1466 21.353 11.0723 21.3045 11.0037 21.2364L5.2249 15.4576C5.06485 15.2975 4.98483 15.1002 4.98483 14.8656C4.98483 14.631 5.07057 14.4282 5.24205 14.2572Z" fill="#242424"/>
</g>
</svg>
