<svg width="25" height="24" viewBox="0 0 25 24" fill="none" xmlns="http://www.w3.org/2000/svg">
<path d="M11.2125 16.7249L4.61254 10.1249C4.41254 9.92486 4.31254 9.68319 4.31254 9.39986C4.31254 9.11653 4.41254 8.8832 4.61254 8.69986C4.79587 8.4992 5.0292 8.4032 5.31254 8.41186C5.59587 8.42053 5.8292 8.51653 6.01254 8.69986L10.9125 13.5999L11.9125 14.5647L12.9125 13.5999L17.8125 8.69986C18.0119 8.4992 18.2492 8.4032 18.5245 8.41186C18.7999 8.42053 19.0292 8.52486 19.2125 8.72486C19.4119 8.9242 19.5075 9.16153 19.4995 9.43686C19.4915 9.7122 19.3959 9.94153 19.2125 10.1249L12.6125 16.7249C12.5125 16.8242 12.4042 16.8949 12.2875 16.9369C12.1709 16.9789 12.0459 16.9999 11.9125 16.9999C11.7792 17.0005 11.6542 16.9799 11.5375 16.9379C11.4209 16.8959 11.3125 16.8249 11.2125 16.7249Z" fill="#1A274E"/>
</svg>
