<svg width="24" height="24" viewBox="0 0 24 24" fill="none" xmlns="http://www.w3.org/2000/svg">
<path d="M13.6992 19.3001L20.2992 12.7001C20.3992 12.6001 20.4702 12.4917 20.5122 12.3751C20.5542 12.2584 20.5749 12.1334 20.5742 12.0001C20.5742 11.8667 20.5532 11.7417 20.5112 11.6251C20.4692 11.5084 20.3985 11.4001 20.2992 11.3001L13.6992 4.70006C13.5159 4.51673 13.2865 4.42106 13.0112 4.41306C12.7359 4.40506 12.4985 4.50073 12.2992 4.70006C12.0992 4.88339 11.9949 5.11273 11.9862 5.38806C11.9775 5.66339 12.0735 5.90073 12.2742 6.10006L17.1742 11.0001H5.9992C5.71587 11.0001 5.4782 11.0961 5.2862 11.2881C5.0942 11.4801 4.99854 11.7174 4.9992 12.0001C4.9992 12.2834 5.09487 12.5211 5.2862 12.7131C5.47754 12.9051 5.7152 13.0007 5.9992 13.0001H17.1742L12.2742 17.9001C12.0909 18.0834 11.9949 18.3167 11.9862 18.6001C11.9775 18.8834 12.0735 19.1167 12.2742 19.3001C12.4575 19.5001 12.6909 19.6001 12.9742 19.6001C13.2575 19.6001 13.4992 19.5001 13.6992 19.3001Z" fill="#1A274E"/>
</svg>
