<svg width="36" height="28" viewBox="0 0 36 28" fill="none" xmlns="http://www.w3.org/2000/svg">
<path d="M9.75664 26.2125C8.56576 27.5658 6.5239 27.6605 5.11048 26.5415C3.42386 25.2063 3.32082 22.7149 4.64721 21.0214C5.12289 20.414 5.5469 19.8141 5.91925 19.2216C6.99569 17.5086 5.58584 15.5769 3.56278 15.5769C1.87125 15.5769 0.5 14.2057 0.5 12.5141V6.5C0.5 3.18629 3.18629 0.5 6.5 0.5H10.1024C13.4161 0.5 16.1024 3.18629 16.1024 6.5V10.0266C16.1024 13.5059 15.4558 16.6815 14.1627 19.5533C13.2334 21.7107 11.7647 23.9304 9.75664 26.2125ZM29.1542 26.2125C27.9634 27.5658 25.9215 27.6605 24.5081 26.5415C22.8215 25.2063 22.7184 22.7149 24.0448 21.0214C24.5205 20.414 24.9445 19.8141 25.3168 19.2216C26.3933 17.5086 24.9834 15.5769 22.9604 15.5769C21.2688 15.5769 19.8976 14.2057 19.8976 12.5141V6.5C19.8976 3.18629 22.5839 0.5 25.8976 0.5H29.5C32.8137 0.5 35.5 3.18629 35.5 6.5V10.0266C35.5 13.5059 34.8534 16.6815 33.5602 19.5533C32.631 21.7107 31.1623 23.9304 29.1542 26.2125Z" fill="#EFEFEF"/>
</svg>
