<svg width="30" height="30" viewBox="0 0 30 30" fill="none" xmlns="http://www.w3.org/2000/svg">
<g id="cart">
<path id="Vector" d="M21.031 19.617L25.314 23.899L23.899 25.314L19.617 21.031C18.0237 22.3082 16.042 23.0029 14 23C9.032 23 5 18.968 5 14C5 9.032 9.032 5 14 5C18.968 5 23 9.032 23 14C23.0029 16.042 22.3082 18.0237 21.031 19.617ZM19.025 18.875C20.2941 17.5699 21.0029 15.8204 21 14C21 10.133 17.867 7 14 7C10.133 7 7 10.133 7 14C7 17.867 10.133 21 14 21C15.8204 21.0029 17.5699 20.2941 18.875 19.025L19.025 18.875Z" fill="#1A274E"/>
</g>
</svg>
