<svg width="88" height="25" viewBox="0 0 88 25" fill="none" xmlns="http://www.w3.org/2000/svg">
<path fill-rule="evenodd" clip-rule="evenodd" d="M12.4465 7.39982C12.577 7.56146 12.8991 7.47271 12.9547 7.27233C13.6172 4.88487 17.63 5.12093 17.63 7.98052V22.3181C17.63 25.4936 13.5406 25.4606 12.9367 22.9622C12.8892 22.7658 12.5925 22.6738 12.4577 22.8242C9.67644 25.9268 3.96332 25.537 1.20336 20.448C-0.45487 16.9155 -0.346452 12.5 1.20336 9.6948C4.26342 4.15605 9.79988 4.12285 12.4465 7.39982ZM12.8626 15.461C12.8626 12.6558 11.2562 9.95453 8.92435 9.95453C6.28158 9.95453 4.77883 12.6558 4.77883 15.461C4.77883 18.0584 6.90341 20.448 8.92435 20.448C10.9453 20.448 12.8626 17.9545 12.8626 15.461Z" fill="#1A274E"/>
<path d="M21.6718 8.55194C21.6718 5.64285 26.6982 5.74675 26.6982 8.55194V23.1493C26.6982 25.5909 21.6718 25.6428 21.6718 23.1493V8.55194Z" fill="#1A274E"/>
<path d="M21.6718 2.47403C21.6718 -0.798642 26.6982 -0.850609 26.6982 2.47403C26.6982 5.79867 21.6718 5.7467 21.6718 2.47403Z" fill="#1A274E"/>
<path d="M55.4059 8.55194C55.4059 5.64285 60.4323 5.74675 60.4323 8.55194V23.1493C60.4323 25.5909 55.4059 25.6428 55.4059 23.1493V8.55194Z" fill="#1A274E"/>
<path d="M55.4059 2.47403C55.4059 -0.798642 60.4323 -0.850609 60.4323 2.47403C60.4323 5.79867 55.4059 5.7467 55.4059 2.47403Z" fill="#1A274E"/>
<path d="M82.9736 8.55194C82.9736 5.64285 88 5.74675 88 8.55194V23.1493C88 25.5909 82.9736 25.6428 82.9736 23.1493V8.55194Z" fill="#1A274E"/>
<path d="M82.9736 2.47403C82.9736 -0.798642 88 -0.850609 88 2.47403C88 5.79867 82.9736 5.7467 82.9736 2.47403Z" fill="#1A274E"/>
<path d="M28.7192 9.17534C27.9474 6.64806 32.0796 5.60584 33.1022 7.52316C33.1168 7.55043 33.1281 7.57988 33.1368 7.60955L35.8429 16.8623C35.8997 17.0565 36.1718 17.063 36.2377 16.8717L39.4457 7.56496C40.0157 6.31821 42.1921 6.31821 42.8139 7.56496L46.1348 16.9161C46.201 17.1025 46.4651 17.0994 46.527 16.9115L49.6022 7.56496C50.3795 5.53899 54.5768 6.94158 53.7477 9.17534L48.6176 23.1493C47.6849 25.487 44.3685 25.3831 43.6948 23.1493L41.3368 15.7198C41.2771 15.5319 41.0145 15.5251 40.9453 15.7095L38.1502 23.1493C37.2693 25.5389 34.1602 25.487 33.3829 23.1493L28.7192 9.17534Z" fill="#1A274E"/>
<path d="M68.4125 2.47403C68.4125 0.551985 63.8524 0.448089 63.8524 2.47403V8.55194C63.7962 9.86219 64.2669 10.9935 65.6142 10.9935H73.1165C76.7956 10.9935 77.8838 19.4805 72.2874 19.6169C64.6172 20.1795 63.0131 15.8032 65.3508 13.2373V13.2346C64.3616 14.2867 63.8524 15.7531 63.8524 17.487C64.0078 22.0584 68.1419 24.8311 72.2874 24.8311C76.4329 24.8311 79.5481 22.2337 80.3711 19.1168C80.9747 16.8311 81.1974 14.3376 80.3711 11.8961C79.3866 8.98696 76.6402 6.2857 72.2874 6.2857C71.0089 6.2857 70.6332 6.2857 68.9315 6.2857C68.6453 6.2857 68.4125 6.05312 68.4125 5.76622V2.47403Z" fill="#1A274E"/>
<path d="M72.2874 19.6169C67.8309 19.6169 67.3243 14.6299 70.1225 11.4611C68.2054 11.4985 66.7518 12.0338 65.7977 12.8148C65.6803 12.9122 65.5681 13.0144 65.4611 13.1211C65.4233 13.1594 65.3865 13.1982 65.3508 13.2373C63.0131 15.8032 64.6172 20.1795 72.2874 19.6169Z" fill="#D61517"/>
</svg>
